<svg width="24" height="26" viewBox="0 0 24 26" fill="none" xmlns="http://www.w3.org/2000/svg">
<g clip-path="url(#clip0_134_139)">
<path d="M8.72727 10.2917V20.0417C8.72727 20.1997 8.67614 20.3294 8.57386 20.431C8.47159 20.5326 8.34091 20.5833 8.18182 20.5833H7.09091C6.93182 20.5833 6.80114 20.5326 6.69886 20.431C6.59659 20.3294 6.54545 20.1997 6.54545 20.0417V10.2917C6.54545 10.1337 6.59659 10.0039 6.69886 9.90234C6.80114 9.80078 6.93182 9.75 7.09091 9.75H8.18182C8.34091 9.75 8.47159 9.80078 8.57386 9.90234C8.67614 10.0039 8.72727 10.1337 8.72727 10.2917ZM13.0909 10.2917V20.0417C13.0909 20.1997 13.0398 20.3294 12.9375 20.431C12.8352 20.5326 12.7045 20.5833 12.5455 20.5833H11.4545C11.2955 20.5833 11.1648 20.5326 11.0625 20.431C10.9602 20.3294 10.9091 20.1997 10.9091 20.0417V10.2917C10.9091 10.1337 10.9602 10.0039 11.0625 9.90234C11.1648 9.80078 11.2955 9.75 11.4545 9.75H12.5455C12.7045 9.75 12.8352 9.80078 12.9375 9.90234C13.0398 10.0039 13.0909 10.1337 13.0909 10.2917ZM17.4545 10.2917V20.0417C17.4545 20.1997 17.4034 20.3294 17.3011 20.431C17.1989 20.5326 17.0682 20.5833 16.9091 20.5833H15.8182C15.6591 20.5833 15.5284 20.5326 15.4261 20.431C15.3239 20.3294 15.2727 20.1997 15.2727 20.0417V10.2917C15.2727 10.1337 15.3239 10.0039 15.4261 9.90234C15.5284 9.80078 15.6591 9.75 15.8182 9.75H16.9091C17.0682 9.75 17.1989 9.80078 17.3011 9.90234C17.4034 10.0039 17.4545 10.1337 17.4545 10.2917ZM19.6364 22.5469V6.5H4.36364V22.5469C4.36364 22.7951 4.40341 23.0237 4.48295 23.2324C4.5625 23.4412 4.64489 23.5935 4.73011 23.6895C4.81534 23.7854 4.875 23.8333 4.90909 23.8333H19.0909C19.125 23.8333 19.1847 23.7854 19.2699 23.6895C19.3551 23.5935 19.4375 23.4412 19.517 23.2324C19.5966 23.0237 19.6364 22.7951 19.6364 22.5469ZM8.18182 4.33333H15.8182L15 2.35286C14.9205 2.2513 14.8239 2.18924 14.7102 2.16667H9.30682C9.19318 2.18924 9.09659 2.2513 9.01705 2.35286L8.18182 4.33333ZM24 4.875V5.95833C24 6.11632 23.9489 6.24609 23.8466 6.34766C23.7443 6.44922 23.6136 6.5 23.4545 6.5H21.8182V22.5469C21.8182 23.4835 21.5511 24.2932 21.017 24.9759C20.483 25.6586 19.8409 26 19.0909 26H4.90909C4.15909 26 3.51705 25.6699 2.98295 25.0098C2.44886 24.3496 2.18182 23.5512 2.18182 22.6146V6.5H0.545455C0.386364 6.5 0.255682 6.44922 0.153409 6.34766C0.0511364 6.24609 0 6.11632 0 5.95833V4.875C0 4.71701 0.0511364 4.58724 0.153409 4.48568C0.255682 4.38411 0.386364 4.33333 0.545455 4.33333H5.8125L7.00568 1.50651C7.17614 1.08898 7.48295 0.733507 7.92614 0.440104C8.36932 0.146701 8.81818 0 9.27273 0H14.7273C15.1818 0 15.6307 0.146701 16.0739 0.440104C16.517 0.733507 16.8239 1.08898 16.9943 1.50651L18.1875 4.33333H23.4545C23.6136 4.33333 23.7443 4.38411 23.8466 4.48568C23.9489 4.58724 24 4.71701 24 4.875Z" fill="black"/>
</g>
<defs>
<clipPath id="clip0_134_139">
<rect width="24" height="26" fill="white"/>
</clipPath>
</defs>
</svg>
